<svg xmlns="http://www.w3.org/2000/svg" viewBox="0 0 300 43.639"><g transform="translate(-110 -46.11)"><path d="M362.28,68.371q-.732,1.155-1.33,2.061A18.118,18.118,0,0,1,359.794,72a7.413,7.413,0,0,1-1.145,1.128,6.423,6.423,0,0,1-1.453.746,7.191,7.191,0,0,1-1.675.426,16.478,16.478,0,0,1-2.218.132h-.289v2.172h.289a17.984,17.984,0,0,0,2.725-.182,9.759,9.759,0,0,0,2.12-.56,6.856,6.856,0,0,0,1.686-.963,9.4,9.4,0,0,0,1.376-1.342,18.263,18.263,0,0,0,1.263-1.706q.617-.938,1.336-2.084l.182-.289-1.574-1.327ZM357.8,66.055h-5.209v1.926H357.8Zm47.5-9.511H335.447a4.875,4.875,0,0,0-4.706,5v18.2a4.874,4.874,0,0,0,4.706,5h69.846a4.875,4.875,0,0,0,4.707-5v-18.2A4.876,4.876,0,0,0,405.293,56.544Zm3.57,23.2a3.691,3.691,0,0,1-3.57,3.793H335.447a3.691,3.691,0,0,1-3.569-3.793v-18.2a3.69,3.69,0,0,1,3.569-3.792h69.846a3.69,3.69,0,0,1,3.57,3.792Zm-43.257-9.637h8.153a4.821,4.821,0,0,1-.207,1.193,4.291,4.291,0,0,1-.911,1.217,9.1,9.1,0,0,1-1.525,1.334c-.664.48-1.531,1.058-2.576,1.718l-.3.191,1.421,1.329.2-.128q1.088-.688,1.932-1.262c.564-.383,1.066-.753,1.495-1.1a9.111,9.111,0,0,0,1.1-1.042,5.23,5.23,0,0,0,.75-1.1,4.892,4.892,0,0,0,.427-1.235A7.291,7.291,0,0,0,375.7,69.8V68.321H365.605Zm20.584-5.372a6.7,6.7,0,0,1-.476.968,5.857,5.857,0,0,1-.615.845,9.011,9.011,0,0,1-.817.813l-.837.639q-.555.406-1.138.778t-1.233.728q-.655.359-1.4.728t-1.589.784l-.467.228,1.146,1.669.326-.155q.826-.391,1.58-.767t1.46-.762c.409-.224.8-.458,1.18-.7v6.232h1.877V69.216l.446-.349a10.884,10.884,0,0,0,1.046-1.014,8.384,8.384,0,0,0,.82-1.082,7.764,7.764,0,0,0,.63-1.233l.17-.422-1.952-.787Zm13.892,3.636q-.732,1.155-1.33,2.061A18.118,18.118,0,0,1,397.6,72a7.337,7.337,0,0,1-1.145,1.128,6.436,6.436,0,0,1-1.452.746,7.212,7.212,0,0,1-1.676.426,16.478,16.478,0,0,1-2.218.132h-.289v2.172h.289a17.985,17.985,0,0,0,2.725-.182,9.76,9.76,0,0,0,2.12-.56,6.84,6.84,0,0,0,1.686-.963,9.449,9.449,0,0,0,1.376-1.342,18.416,18.416,0,0,0,1.262-1.706q.617-.938,1.337-2.084l.181-.289-1.574-1.327ZM374.563,65.3h-7.825v1.667h7.825Zm21.034.758h-5.209v1.926H395.6ZM348.19,64.2h-1.86v3.071H339.5V68.88h5.416a4.478,4.478,0,0,1-.258,1.353,4.033,4.033,0,0,1-.83,1.316,7.728,7.728,0,0,1-1.517,1.223c-.639.406-1.416.848-2.313,1.316l-.316.165,1.051,1.363.21-.112c.955-.5,1.8-.991,2.52-1.448a9.285,9.285,0,0,0,1.831-1.49,5.712,5.712,0,0,0,1.039-1.561V76.78h1.86v-7.9h2.783V67.271H348.19ZM228.032,55.772c.706.091,1.376.571,2.134.274.049.086.114.087.162,0a6.724,6.724,0,0,0,.739,0c.131.037.331-.074.41.089.208-.326.252.235.491.091.5-.307,1.256.277,1.809-.159a3.278,3.278,0,0,0,2.548-.672c.871-1.082,3.542-1.606,2.486-3.522-1.268-.657-2.419-1.6-3.844-1.842-.87-.265-1.7-.919-2.622-.8-1.779-.566-3.874-.339-5.659-.907a7.652,7.652,0,0,0-1.327,1.977c.492,1.162.632,2.475,1.124,3.636C226.9,54.614,226.93,55.9,228.032,55.772Zm-110.1,12.4c.862.015,1.6.358,2.46.364a2.581,2.581,0,0,0,.984.18c.49.522.987-.251,1.478.011,1.029-.321,2.5-.016,3.534-.578a4.981,4.981,0,0,0,2.4-2.66h-.082c-.1-.052-.081-.163-.08-.26-.335-.1-.4-.555-.653-.695-.487-.686-1.383-.624-2.048-.621a2.665,2.665,0,0,1-1.4.249c-.525,0-1,.2-1.644.247-2.176-.016-4.614-.025-5.6,2.29C117.828,67.044,117.123,68.006,117.936,68.168ZM119.1,53.494a7.344,7.344,0,0,0,1.552,1.222c.081,0,.164,0,.245,0,.334.477.984.18,1.476.27a2.381,2.381,0,0,0,1.394.269c1.527-.109,2.687.962,4.265.463.529-.323,1.551.107,1.648-.765a1.386,1.386,0,0,0,.335-1.034c.371-.376.937-.294,1.237-.855-.047-.345-.417-.261-.571-.521.045-.648-.453-1.169-.152-1.816-.5-1.03-1.631-.469-2.126-1.484-.138-.207-.484.075-.573-.262-.37,0-.613-.342-.983-.353-.89-.749-2.231-.353-3.28-.715-.328.049-.628-.48-.9-.092a5.761,5.761,0,0,0-2.134-.19,2.584,2.584,0,0,0-1.658,2.32c-.626.513-.452,1.387-.916,1.98a5.414,5.414,0,0,1,.649,1.041A.593.593,0,0,1,119.1,53.494Zm37.673,25.931a9.994,9.994,0,0,0,2.311-1.71,6.605,6.605,0,0,0-.307-3.112c-1.73-1.595.455-3.141-.131-5.01a1.792,1.792,0,0,0-1.72-.7c-.87-.144-1.926-.5-2.63.326-.371.317-.821.046-1.231-.008a20.18,20.18,0,0,0-6.241.127,9.2,9.2,0,0,0-2.633.843c-.538.721-1.48.387-2.22.588a5.061,5.061,0,0,0-1.571,1.716c-.922,1.592-1.886,3.485-1.267,5.432a10.652,10.652,0,0,0,1.053,1.994c-.036.562-.659.341-.988.512-.346.127-.38.506-.742.6a31.8,31.8,0,0,1-.352,3.453,6.187,6.187,0,0,1-3.056,2.654,3.145,3.145,0,0,1-1.391-.788,10.9,10.9,0,0,0-1.4.422,1.688,1.688,0,0,1,.24,1.038,5.387,5.387,0,0,0,2.126,1.225,15.872,15.872,0,0,1,3.132-1.963,7.067,7.067,0,0,1,4.855-1.605,1.834,1.834,0,0,0,.829-1.2,2.242,2.242,0,0,0-.072-1.555c.055-.7-.682-1.068-.891-1.647.444-.213,1.091.094,1.479-.248,2.182.232,4.271-.314,6.407-.471a.585.585,0,0,1,.739.093c.487-.325.952-.088,1.479-.249a6.455,6.455,0,0,1,1.561-.074c.443-.007.832-.41,1.233-.25C155.861,79.763,156.316,79.326,156.774,79.425ZM142.7,72.411c.482.262.775-.513,1.149.007.246-.033.493-.307.739-.081.494-.334,1.388-.171,2.053-.33.775-.3,1.75-.074,2.467-.5a13.708,13.708,0,0,0,3.946-.66c.528-.385,1.257-.25,1.729-.765a1.515,1.515,0,0,1,.9.18c-.2.653.353,1.22.15,1.987-.979.474-1.646-.584-2.627-.107-.161-.3-.329.205-.491-.09-.881.347-1.908.322-2.8.67-.081-.225-.164.05-.247.084-.607-.177-.981.546-1.561.161-.461.351-1.191.208-1.726.246-.362.051-.784.444-1.068.166a4.83,4.83,0,0,1-2.549.5c-.295-.141-.1-.485-.241-.694C142.582,73.031,142.4,72.555,142.7,72.411Zm12.525,5.274c-.467-.158-.921.262-1.479.163a.38.38,0,0,0-.411.17,5.288,5.288,0,0,0-2.054.243c-.178-.468-.454.161-.656-.091-.2.084-.452-.012-.576.254-1.191.1-2.479-.07-3.453.579-.368-.184-.8.219-1.15.078l-1.233.249c-.486.187-1.168.372-1.561.076.084-.345-.2-.934.253-1.035.5.081.994-.131,1.4-.076.445-.083.825-.555,1.316-.249.2-.343.656-.037.905-.251,1.76-.627,3.829-.457,5.59-1.082.212.294.338-.179.575-.082,1.107.112,1.845-.919,2.8-1.016l.245.261C155.563,76.478,156.129,77.71,155.227,77.685Zm.428-2.5c-.081-.173-.239.035-.33.085-.535.255-.892-.438-1.391-.529-1-.44-1.7.419-2.711.24-1.843.5-3.79.7-5.672,1.08-.708.132-1.681-.367-2.139.415-.371.171-.277-.287-.408-.435.047-.725.94-.39,1.4-.593.516.1.94-.562,1.4-.077a19.247,19.247,0,0,1,2.222-.674c2.466-.5,5.086-.61,7.4-1.5.7-.279.408.444.57.782C156,74.427,155.649,74.8,155.655,75.183Zm-26.272-.022c-.467-.184-1.084,0-1.559-.184-.567.16-.621.773-1.155.941-.251-.459-.627.34-.9-.179a4.076,4.076,0,0,0-1.234.077,9.419,9.419,0,0,0-3.285.408,11.6,11.6,0,0,0-3.7.663c-.619-.565-1.556-.365-2.377-.449-.379-.038-.77-.317-1.15-.095-.3.489-.122,1.208-.176,1.812a.42.42,0,0,1,.161.433c.353,1.333.565,2.7,1.04,3.98.376.323.349.823.567,1.214-.053.484.372.745.567,1.127a10.473,10.473,0,0,1,.551,3.458c.033.078-.041.12-.084.173-.092.344-.2.912.075,1.208.692-.375.878-1.124,1.243-1.717a1.725,1.725,0,0,1-.239-1.125,2.243,2.243,0,0,1,1.078-1.632c.526-.075.743.584,1.227.613a8.272,8.272,0,0,1,1.807-.073c.773-.348,1.693-.324,2.467-.673.165-.215.542.092.659-.254a10.072,10.072,0,0,0,2.059-.935c.109-.353.856-.347.581-.946.661-.582.708-1.427,1.245-2.062.086-.388.5-.61.5-1.034a21.76,21.76,0,0,0,1.335-3.185C131.028,75.787,129.789,75.76,129.383,75.161Zm-2.674,7.062c-.266.56-.863.011-1.315.077-1.069.122-2.124-.275-3.037-.022-.789.09-1.327.846-2.222.675-.223.386-.542,0-.821-.007-.283-.676-1.181-1.391-.478-2.163.731-.072,1.277-.594,1.976-.762a.654.654,0,0,1,.658-.255c.44.575,1.1-.389,1.642.186a7.79,7.79,0,0,0,3.372-1.1c.031.381.29.744.074,1.124A7.38,7.38,0,0,1,126.708,82.223ZM114.765,63.567c1.147.319,2.35-.25,3.446.2a19.226,19.226,0,0,0,3.781-.663c.858-.434,1.859-.5,2.716-.929,1.365-.363,2.786-.585,4.193-.833,1.111-.372,2.512-.008,3.454-.839,1.429-.1,1-1.789,1.332-2.753a2.047,2.047,0,0,0-1.88-1.309,2.206,2.206,0,0,0-1.889.245c-1.2.034-2.2.589-3.452.492-.246.05-.536.272-.74.168-.586.435-1.528.239-2.218.156-1.444.024-3.108-.489-4.351.053a5.556,5.556,0,0,1-2.056.59,16.655,16.655,0,0,1-3.539,1.183c-.752.66-1.761.687-2.471,1.45-.416.6-1.189.8-1.079,1.633.556.384,1,1.38,1.8,1.309C112.8,63.155,113.776,64.13,114.765,63.567Zm13.989,7.357c.328-1.12-.781-1.025-1.3-1.477a4.467,4.467,0,0,1-1.478.076,27.769,27.769,0,0,1-4.193.831c-.28.18-.812-.014-.986.166a12.539,12.539,0,0,0-3.124.753,15.047,15.047,0,0,0-3.292,1.272c-.1.4.514.262.323.694a3.928,3.928,0,0,0,2.7,1.4c.377.185.767-.391.984.18.364-.394.938-.287,1.4-.422a40.119,40.119,0,0,0,6.742-1.419,7.19,7.19,0,0,0,2.306-1.192C128.8,71.495,128.909,71.159,128.754,70.925ZM314.179,51.833c-1.15.079-2.554.284-3.443-.543a1.17,1.17,0,0,1-1.073.769c-.361-.262-.879.123-1.4-.011-1.679-.486-3.658-.2-5.5-.3-.049.052-.116.12-.167.173-1.245-.233-2.252.423-3.446.059-1.113-1.6-2.253.416-3.533.234a1.049,1.049,0,0,0-.252.861,1.349,1.349,0,0,1,.326.435c-.344,1.008.034,2.341-.679,3.19a6.679,6.679,0,0,1-.178,2.244c.156,1.056-.053,1.952.472,2.854-.222.473.39.788.32,1.3.768.7,1.019,2.288,2.285,2.089.611-.375,1.527.047,2.137-.33q4.225-.162,8.3-.715c.616.056,1.11-.467,1.724-.159.039,1.874.213,3.922.124,5.96.079.493.357.883.074,1.382.2,1.522.544,3,.626,4.583-.035.578.394,1.082.154,1.643a16.533,16.533,0,0,1,.31,2.507c-.031.034-.047.052-.082.084a18.471,18.471,0,0,1,.14,3.716c.323.573.035,1.1.235,1.729a7.219,7.219,0,0,0,.318,1.643c.029.354.244.64.156,1.037.035.77.855,1.052,1.388,1.307.444-.378,1.038-.519,1.321-1.114-.277-.356-.259-.831-.485-1.212-.561-2.017,1.092-3.577.533-5.7.471-1.844-.149-3.628-.048-5.528-.114-1.323.265-2.538.026-3.8l.166-.172c.042-1.5-.055-3.048.112-4.489-.322-1-.025-2.47-.223-3.629.006-.9.015-2.124.021-3.022a.985.985,0,0,0,.09-.95c.3-1.75.108-4.136.531-6.041C315.715,52.958,314.8,52.313,314.179,51.833Zm-4.172,9.9c-2.23-.232-4,.705-6.243.472-.049.052-.115.121-.164.172l-2.955-.023c-.307.464-.591-.168-.986-.007.013-.562-.123-1.063-.071-1.642,1.511-.205,3.046-.09,4.68-.225.479-.341,1.2-.034,1.727-.246,1.052-.234,1.93-.142,2.8-.844-.176-.812-1.011-1.069-1.632-1.307-.69-.427-1.429.067-2.216-.1-.506.523-1.414.023-1.974.416-1.085.122-2.083-.274-3.12-.023a4.705,4.705,0,0,1-.071-1.728,7.624,7.624,0,0,0,2.959-.323l3.694.027c1.234-.509,2.362.277,3.694.027A25.9,25.9,0,0,1,310.007,61.733ZM238.22,79.079c-.281.179-.706-.014-.986.165-.285-.331-.7-.376-.98-.7a.531.531,0,0,0-.251.6c.394,1.376.439,2.888,1.287,4.069A2.856,2.856,0,0,0,239,85.389c1.013-.5,2.5-.568,2.723-2.052A6.245,6.245,0,0,0,238.22,79.079Zm-23.429,4.49a5.426,5.426,0,0,0-2.279-2.781c-.51,0-.877-.36-1.394-.355-.41-.142-.859-.464-1.229-.442-.123.034-.163-.122-.245-.174a.726.726,0,0,0-.491-.089c-1.695-.619-4.089-1.239-5.422.477-.456.765.517,1.343.643,2.078.048.3.531.4.405.78a8.254,8.254,0,0,0,2.7,1.92,8.272,8.272,0,0,0,1.8,1.222c.9.568,1.706,1.4,2.865,1.317a.625.625,0,0,0,.249-.517c.492-1.086,1.594-1.457,2.478-2.141l0-.259C215.2,84.211,214.576,83.913,214.791,83.569Zm28.166-25.182c-1.748-1.231-4.106-.929-6.315-1a6.649,6.649,0,0,1-2.628.154,28.981,28.981,0,0,1-3.371.58c-1.522.419-3.2.485-4.686,1-.458-.357-.716.307-1.233.078-1.285.63-3.015.288-3.871,1.871,0,.1-.019.206.079.26-.214.188-.241.473-.415.688a2.141,2.141,0,0,1,.238,1.211c-.044.4.349.477.569.695,1.379.174,2.841.073,4.27.118.476.21.43.789.567,1.213a25.117,25.117,0,0,0,1.541,2.774.789.789,0,0,1-.741.255c-.443.057-.9.373-1.316.249-.412.264-.986.157-1.4.422-.591.133-1.207.068-1.725.246.043.855-.193,1.828.476,2.422.349.658,1.07.707,1.72.788.351.167.659-.331.9.094,1.069-.234,2.21-.294,3.288-.494.115-.024.236.209.327,0a.755.755,0,0,1,.74.006c-.129.621.239,1.16-.012,1.728-1.939.15-3.732.671-5.671.822A3.493,3.493,0,0,1,223.3,75c-.663-.178-1.193.509-1.891.5-1,.589-2.237.554-3.29,1.012-.693.341-1.521.291-2.059,1.022a4.6,4.6,0,0,1-.582.946c.762.428,1.247,1.52,2.291,1.225a19.666,19.666,0,0,0,6.161-.386c.269.339-.136.594-.252.863-.379,1.414-1.715,2.4-2.814,3.26-.431.654-1.074.995-1.16,1.806.286.106.448.5.734.61a7.729,7.729,0,0,1,.81,1.561c.32.1.454-.256.741-.254a2.813,2.813,0,0,1,1.8.187c.407-.68,1.189-1.106,1.571-1.63.685-.417.552-1.342.919-1.979.646-1.031.671-2.336,1.334-3.359-.074-.958.881-1.573.428-2.587.642-.307,1.444-.967,2.138-.329-.009,1.217-.018,2.642-.026,3.971-.14.043-.018.217-.167.259.064,1.762-.508,3.571-.2,5.439.285.52-.3,1.5.482,1.732a2.566,2.566,0,0,0,2.221-.5c.206-1.467.274-2.986.6-4.4a9.364,9.364,0,0,0,.842-3.017c.49-.868.1-2.236.348-3.106a6.858,6.858,0,0,0-.072-1.123c.081-.156.238-.137.33-.257,1.294.173,2.781.073,4.021.116.944.214.852-.953,1.4-1.372a18.041,18.041,0,0,0,1.327-1.8c-.364-1.066-1.421-1.143-2.29-1.313-.506.308-1.2.112-1.809.158-.371.291-.912.131-1.316.336-.259.654-.986.157-1.4.422-.276-.434.2-.863-.072-1.3.193-.759.914-.349,1.481-.422a4.09,4.09,0,0,1,1.729-.849c.259-.526.928-.027,1.235-.423a18.273,18.273,0,0,1,2.222-.761c.6-.065.489-.73.5-1.2q-.368-.262-.735-.524c-.524-.219-1.144-.7-1.721-.271-.278-.124-.591-.1-.82-.352a6.747,6.747,0,0,0,.834-1.808c.541-1.032.094-1.951-.226-2.938.445-.22.87-.114,1.316-.423,1.311.218,1.182-1.252,1.983-1.885a9.585,9.585,0,0,1,1.567-1.023A1.687,1.687,0,0,0,242.957,58.387ZM230.5,67.276l-.329,0c-.271-1.125.212-2.243-.059-3.368.724-.262,1.586-.153,2.3-.413a6.708,6.708,0,0,0,2.3-.33c.165,1.039-.024,2.245.141,3.284C233.457,66.857,231.8,66.6,230.5,67.276Zm75.122-.478c-.334-.426-.919-.232-1.308-.528a23.369,23.369,0,0,0-2.383.24c-.5.213-1.2-.128-1.564.421-1.02.131-2.024.8-3.04.41-.908.546-1.756-.351-2.709.066-.2-.382-.708.03-.9-.352-1.773.109-3.23-.577-5-.468-.246.093-.707.2-.9-.094-.379.247-.919-.145-1.233.163a5.667,5.667,0,0,0-1.561.076c-2.3-.242-3.7,1.847-5.439,3.067-.05-.051-.114-.121-.162-.173.159-.439-.125-1,.09-1.467.612-.695-.143-1.668.347-2.416.232-.344.436.038.739-.081a8.541,8.541,0,0,1,2.547-.241c.61-.374,1.526.047,2.136-.329.818.325,1.463-.369,2.3-.243a3.492,3.492,0,0,1,1.485-.938c2.471-1.285,2.842-4.125,3.083-6.713.133-1.5-.037-3.119,1.176-4.138.21-.689-.419-1.238-.889-1.733.051-.517-.572-.6-.734-.955a4.142,4.142,0,0,1-1.233.423c-1.212.691-2.614,1.717-4.114.919-.3.223-.5-.082-.821.081-.244-.261-.673-.039-.9-.353a15.5,15.5,0,0,0-2.463.069c-.14-.184-.428,0-.574-.178a14.807,14.807,0,0,0-2.3.933c-.5-.418-1.363.076-1.721-.7a1.394,1.394,0,0,1-1.064-.44c-.123-.044-.3-.175-.41,0-.6-.661-.947.4-1.4.68a1.974,1.974,0,0,1-.5,1.033c.079.562-.5.938-.257,1.466-.536.351.033,1.2-.5,1.551-.382,1.656.884,2.615,1.2,3.982a1.286,1.286,0,0,1,.484,1.3c.484,1.222.352,2.7.714,3.979-.072,3.23-.282,6.491-.231,9.67a2.3,2.3,0,0,0-.091,1.468,36.579,36.579,0,0,0-.436,3.711l-.165.172c.127.682-.221,1.156-.34,1.724-.059.276-.5.394-.334.774-.208.526-.649.082-.986.166-.5.247-.04,1.088-.421,1.465.12,1.858,1.243,3.292,1.856,4.937.905-1.677,2.68-2.986,3.235-4.812.53-.869.309-2.062.839-2.931.1-1.683.632-3.3.446-5.005a5.076,5.076,0,0,0,.094-1.9c.213-1.189-.066-2.47.272-3.712.456.4.93.819,1.386,1.22.374-.42,1.061-.018,1.4-.508.527,0,1.136-.345,1.562-.074.561.92,1.414,2.04.883,3.116a3.489,3.489,0,0,1-.257,1.553c-.172.992-.678,1.817-.76,2.844,0,.251-.339.464-.168.689.638.36,1.307,1.124,2.048.706.683-.417.551-1.342.917-1.978,2.308-.5,4.869-.353,7.228-.725.239-.049.444-.281.656,0,.48-.428,1.2-.206,1.728-.505.623.1,1.243-.336,1.891-.417.415.495.229,1.384.151,1.987a2.207,2.207,0,0,1-1.236.768c-1.766.021-3.338.53-5.095.567a16.445,16.445,0,0,0-3.616.664c-1.281.155-2.418.682-3.7.836-.116.31-.445.117-.657.168-.25.344-.868.685-.911,1.2A4.7,4.7,0,0,0,284.655,84c.915-.5,2.081-.381,3.043-.754.871-.167,1.758-.332,2.63-.5,1.274-.448,2.733-.135,4.109-.575,1.442.228,3-.841,4.184.292a21.708,21.708,0,0,0-.272,4.057c-.217.379.041.984.071,1.468.142,1.013,1.187.485,1.719.878.018-1.408.911-2.412,1.175-3.705.206-.465-.076-1.15.255-1.553-.283-.487.285-.827.092-1.381.081-.12.191-.335.084-.43-.1-.244-.167-.684.089-.864a13.469,13.469,0,0,1,.178-2.243c-.634-2.233.838-3.751.7-5.869-.033-.035-.049-.053-.083-.087.245-.862-.142-2.013.349-2.761a3.51,3.51,0,0,0,2.557-1.707C305.355,67.676,306.269,67.268,305.622,66.8ZM280.9,56.681c.605.3.831-.607,1.4-.161,2.022-.193,4.108-.237,6.079-.561a2.327,2.327,0,0,1,.4,1.558c0,.121,0,.224,0,.345-1.312.156-2.74.032-4.1.056-.472.636-1.2-.173-1.727.333a16.2,16.2,0,0,0-2.548.413C280.808,57.9,279.5,56.628,280.9,56.681Zm-.108,3.54c.907-.381,1.639.4,2.546.02.371-.325.746.127,1.231-.077.64.35,1.193-.294,1.807.012.6.057.988-.424,1.563-.419.363-.248.776-.608,1.234-.337-.162.992-.472,1.913-.595,2.932a1.3,1.3,0,0,1-.986-.007,29.252,29.252,0,0,0-7.553.289c-.057-.164-.214-.053-.327-.088C279.8,61.647,280.483,61.014,280.791,60.221Zm7.894,10.507c1.579.5,3.007-.433,4.68-.223.362-.067.732-.373,1.069-.25.313-.343.872-.037,1.234-.25a12.035,12.035,0,0,1,2.629-.5c-.094.655.164,1.159.071,1.813.047.148-.094.216-.086.344a25.3,25.3,0,0,1-3.119.065c-1.211.388-2.781-.116-3.943.4-1.2-.052-2.2.416-3.449.234C288.021,71.8,287.872,70.741,288.685,70.729Zm9.738,4.479q-3.941.357-7.886.718c-.608.34-1.476.032-2.134.242-.381.361-1,.1-1.4.422-.375-.6.328-1.154.094-1.9.437-.212.771.093,1.151-.249.2-.033.476.107.576-.168,1.026.058,1.932-.461,2.957-.152.822-.374,1.64.047,2.464-.327l2.873.022c.338-.171,1.348-.466,1.312.268C298.183,74.463,298.55,74.776,298.423,75.208Zm-30.4-8.258c-.334-.261-.739.133-1.066-.094-.248.257-.443-.134-.738-.006-3.379.45-7.061.12-10.593.18-2.068-.007-4.156.263-6.079.387-.286-.037-.494.523-.739.081-.066-.977-.858-1.742-.555-2.768-.316-.659.019-1.676-.725-2.077-.209-.772.656.038.986-.338a2.841,2.841,0,0,1,1.224,1.218c.9.093,1.548-.464,2.386-.5a6.819,6.819,0,0,1,2.141-1.02c.886.093,1.693-.472,2.629-.5.9-.218,1.761-.549,2.634-.845.5-.462,1.236-.466,1.647-.937a12.86,12.86,0,0,0,2.065-1.712c.419-.161.856-.3.909-.857-.124-1.237-.729-2.726-1.95-3.037a3.216,3.216,0,0,0-1.144-.7,5.6,5.6,0,0,0-5.43,1.688l-.329,0a3.977,3.977,0,0,1-2.96.669,11.724,11.724,0,0,1-1.729.592c-1.311,1.027-2.833,1.507-4.041,2.819-.432.783-1.189,1.2-1.246,2.151-.329.257,0,.475-.251.775-.815.348-1.947.236-2.389,1.192a8.009,8.009,0,0,0,.316,1.73c-.2,1.078.679,1.688.475,2.767-.469,1.3.581,2.6-.027,3.97.355,1.1-.049,2.524.3,3.631-.3.4-.121,1.035-.174,1.552a20.335,20.335,0,0,1,.288,6.135c.031.035.049.052.081.087a4.52,4.52,0,0,0,.875,4.237c.32-.092.381-.462.579-.686.34-1.673,1.276-3.083,1.838-4.65a5.737,5.737,0,0,1,.338-1.465,25.141,25.141,0,0,0,.445-5.266c.1-1.035.006-2.158,1.166-2.5.408-.558,1.286-.533,1.893-.5a30.19,30.19,0,0,0,3.45-.406c.949.412.186,1.72.641,2.423a19.567,19.567,0,0,0-.1,2.677c.263,2.455-.23,4.886.032,7.342-.139,1.484-.268,3.34.876,4.238.647.35,1.182.951,1.963.965.588-.695.283-1.794.837-2.5a34.032,34.032,0,0,0,.623-7.164c.507-.955.05-2.358.432-3.365.035-1.51,0-2.927-.051-4.578.5-.507,1.364-.085,1.974-.331.033.035.05.052.081.086.165-.223.4.175.575-.082a8.989,8.989,0,0,1,2.625.192,5.507,5.507,0,0,1,2.381.19c1.481.529,2.069-1.314,2.968-2.137.787-.926-.026-2.013-.226-2.938A5.938,5.938,0,0,0,268.021,66.95Zm-62.781,8.515c-.21-.432.056-.862.091-1.294-.274-.78.207-1.553-.066-2.333.015-.916,1.413-1.336.837-2.411a6.085,6.085,0,0,0-1.135-2.168l.082-.085c-.461-.807-1.515-.513-2.294-.709-.922,2.792-3.013.116-4.684.57-2.465.371-4.811.224-7.229.724-1.118.165-2.252.33-3.369.493-.384-.331-.677.4-1.069.078-1.569.265-3.372,1.046-3.959,2.735a8.054,8.054,0,0,1-.421,1.724c.081,1.2-.8,1.956-.844,3.1a15.681,15.681,0,0,1,1.7,3.725c.392.307.356.954.9,1.044a1.592,1.592,0,0,0,1.893-.764c.587-.565,1.314.018,2.054-.158.707-.028,1.1-.3,1.806-.072a29.67,29.67,0,0,1,4.846-.223c.281-.429.664.126.986-.166,2.1-.382,4.753.13,6.9-.382C203.3,77.7,204.492,76.876,205.239,75.465Zm-3.175-4.082c-.364.472.355,1.132-.093,1.639.193.556-.375.9-.091,1.383-.081.95-.512,1.723-.593,2.674-.648-.187-1.183.2-1.805-.187-4.319.279-8.713.4-12.574,1.894-.244-.252.118-.431.086-.69.013-.553-.229-1.168.1-1.641.772-.341,1.477-.034,2.3-.242,1.643-.161,3.439.068,4.929-.482.46.186.913-.166,1.4-.163a.922.922,0,0,1,.821.007c.822-.193,1.572-.541,2.386-.759.461-.29-.128-.632-.324-.78-.745-.376-1.839-.014-2.543-.278a15.4,15.4,0,0,0-2.465.412,15.116,15.116,0,0,0-4.767.83c-.576.228-1.226.3-1.81.5-.748.029-.273-.918-.4-1.386a50.159,50.159,0,0,0,5.672-1.081,44.781,44.781,0,0,1,4.766-.568l.081.086a5.14,5.14,0,0,0,1.729-.678c-.463-.6-1.312-.277-1.884-.619-.289.248-.507-.211-.82-.179a8.651,8.651,0,0,0-4.929.4c-.461.116-.833.477-1.4.335-.716.348-1.578.324-2.3.675-.425-.212-1.031.787-1.068-.008.2-.483-.1-1.349.585-1.465.823-.382,1.857-.245,2.632-.757.089.105.3,0,.411-.083.705.143,1.2-.216,1.809-.332,3.082-.452,6.034-.076,9.115-.277.281-.24,1.286-.907,1.149.095C202.319,70.314,201.847,70.793,202.065,71.383ZM166.7,56.007c-.131.033-.327-.081-.411.083-.359-.27-.868-.17-1.228-.441l-2.871-.28c-.294-.339-.584.082-.9-.179-.578.333-.984-.258-1.559-.185a23.536,23.536,0,0,1-3.531.061c-.256.334-.615-.091-.985-.008-.881.339-2.02.028-2.957.237-.091-.121-.246-.114-.327-.261a1.2,1.2,0,0,1,.253-.949c1.151-.286,2.5-.033,3.454-.838.829.007,1.466-.888,1.9-1.541-.611-.695-.941-1.742-1.959-1.828-.872.167-1.35-.666-2.213-.533-.448-.443-1.245-.26-1.8-.187-.165.094-.544.2-.657-.092.1-.862-.473-1.455-.724-2.164-.664-.117-1.077-.829-1.8-.79-.718.477-1.5.93-1.654,1.887-.241.49.146,1.253-.34,1.638-.181-.009-.386.042-.491-.175a10.524,10.524,0,0,0-1.972.33c-.631-.255-1.569.032-2.3-.189-.619.514-1.451.991-1.736,1.8-.569.394-.434,1.11-.914,1.548.251.615.8.887,1.14,1.477.555.6,1.148.276,1.8.618a10.221,10.221,0,0,1,1.974-.59c.259-.525.928-.028,1.235-.422.686.487,1.314-.173,2.052-.072-.127.569.608,1.171-.011,1.554a7.93,7.93,0,0,0-3.451.406c-2.708-.279-4.971.611-7.235,1.5-.964.547-2.381,1.425-2.481,2.746-.085.483.416.409.653.61a11.544,11.544,0,0,1,2.137-.417c3.847.581,6.806-1.141,10.192-1.738a1.633,1.633,0,0,1,1.89-.246c1.953.162,3.6.322,5.5.646.091.053.244.262.328.089,1.015.448,2.18.525,3.2.974,1.517.1,2.464.839,3.933,1.066a7.218,7.218,0,0,1,2.378.535A6.734,6.734,0,0,0,169.137,60a2.765,2.765,0,0,1,1.654-1.8,16.5,16.5,0,0,0-2.449-1.918C167.852,56.059,167.142,56.355,166.7,56.007Zm-1.244,26.418c-1.11-1.157-2.75-1.342-4.258-1.673a11.592,11.592,0,0,0-3.035-.454c-.716.461-1.855.029-2.3,1.019.03.449.471.738.649,1.128,1.2,1.736,2.868,2.284,4.245,3.572.295.27.763.144.982.612a18.379,18.379,0,0,0,2.456.968,2.472,2.472,0,0,0,2.546-.067c.294-.931-.448-1.7-.888-2.339A15.9,15.9,0,0,1,165.458,82.425Zm-8.35-15.952c.559-.039,1.476.174,1.811-.5a10.116,10.116,0,0,0,.668-1.809c.054-.613.693-.453,1.071-.6.291-.482.939-.426,1.074-.942a5.083,5.083,0,0,1-.98-.7c-.42.057-.621-.462-1.064-.353-.442-.314-1.1-.129-1.642-.185-.326-.357-.767-.731-1.144-.7a15.023,15.023,0,0,0-1.639-.53,45.583,45.583,0,0,0-5.5.218l-.081-.087c-.181.007-.386-.046-.495.169a14.38,14.38,0,0,0-2.381.069c-.041-.156-.2-.028-.245-.175-.421.292-.955.27-1.4.508a9.662,9.662,0,0,0-2.8.584c-.444.118-.916.65-1.316.337-.4-1.412-1.9-.818-2.95-.973-.8.21-.679,1.127-1.159,1.632.676.869,1.624,1.394,2.119,2.347a3.906,3.906,0,0,1,1.7,3.036c.391.427.223,1.073.647,1.473a1.3,1.3,0,0,0,.907-.511c.814-.046.605-1,.994-1.461a6.065,6.065,0,0,0,1.556.7,4.969,4.969,0,0,0,3.2-.235c.354-.136.655.325.9-.08a14.216,14.216,0,0,0,2.381-.155c.527-.117,1.135-.061,1.564-.42a4.226,4.226,0,0,0,2.883-1.275c.159-.5-.209-.675-.487-.953-.491-.307-1.2-.1-1.638-.532.053-.6-.124-1.322.175-1.811,1.035.1,2.021-.167,2.957-.065a13.076,13.076,0,0,1,.15,2.16C157.248,65.152,157.062,66.049,157.108,66.473Zm-11.246-.256c-.45-.315-.782.209-1.233.164-.605-.308-1.86.694-1.473-.7a6.065,6.065,0,0,1-.564-1.645c1.054-.416,2.34-.164,3.289-.84.147.122.329-.2.575-.082a14.549,14.549,0,0,0,.066,2.332C146.563,65.91,146.176,66.054,145.862,66.217Zm4.359-1.264c-.625.289-1.436.11-2.055.417-.536-.661.387-1.327-.15-1.988.014-.984,1.257-.258,1.81-.591.4-.472.91.144,1.064.44C150.551,63.746,151.3,65.219,150.221,64.953Zm30.268,16.2c-.2-.036-.375-.313-.574-.091-.94-.533-1.784.247-2.63.5a2.578,2.578,0,0,0-1.492,2.063c1.371,1.167,1.787,2.9,3.424,3.566,1.526-.014,1.9-1.747,2.973-2.569.3-1.035,1.759-1.672,1.334-2.927C182.716,81,181.556,81.206,180.489,81.155Zm-3.7-11.6c.44-.627,1.449-.387,1.4-1.372.736-.763,1.457-1.639,1.168-2.754.251-.767,1.153-.6,1.65-1.112,1.134-.241,1.97-1.237,3.209-1.185.575,0,1.2-.38,1.724.013-.29.559.317,1.816-.75,1.721-.714-.056-1.332.423-1.973.332-.331.342-.838.2-1.153.6a3.124,3.124,0,0,0-2.147,1.8c-.036.484.516.281.652.7.654.532,1.2-.217,1.809-.333,2.576-.9,5.953-.249,8.628-1.145.475.237.856-.252,1.4-.076.273-.222.609-.09.905-.338a8.319,8.319,0,0,0,3.124-.668c.9.04,1.878-.8,2.875-.238.214,0,.5-.385.657,0,1.609.046,3.285-.052,4.843.123,1.068-.044,2.287.543,3.2-.149a.968.968,0,0,1,.582-.946c.5-1.024,1.648-1.118,2.393-1.882,1.159-.209,1.644-1.4,2.232-2.317.412-1.4,1.544-2.483,1.587-4.046-.049-.053-.115-.122-.164-.174-.941-.422-2.061-1.077-3.116-.455-.443.014-.915.477-1.481.42a6.632,6.632,0,0,1-.586,1.723c-.159.422-.544.264-.9.253-.082-.036-.162-.312-.246-.089a4.407,4.407,0,0,0-1.393-.355c-.524-.272-1.2-.173-1.721-.445-1.273.156-2.841.032-4.27.056-.987.381-2.186.242-3.124.754-1.115-.147-2.073.623-3.12.149a32.484,32.484,0,0,1,3.71-2.391c.911-.045,1.509-.939,2.468-.845.379-.041.563-.6.989-.512a11.067,11.067,0,0,0,1.654-1.8,1.578,1.578,0,0,0-.734-.7c-1.444-.14-2.68-.8-4.182-.808-.244-.036-.489-.314-.738-.091-.488-.487-.937.174-1.477.075-.033-.087-.295-.174-.082-.261.356-.472-.257-.76-.4-1.124a5.02,5.02,0,0,0-3.1-3.478c-.658.176-1.024.934-1.406,1.458-.7.781-.052,1.848-.265,2.847l-.165.173a1.5,1.5,0,0,0-1.065-.267c-1.481.324-3.172.373-4.6.57a4.5,4.5,0,0,0-1.315.336,5.184,5.184,0,0,0-1.4.422c-.613.816-1.855,1.083-1.9,2.232-.094.655-.551,1.48-.1,2.071a13.571,13.571,0,0,0,3.766,1.669c1.874-.288,3.932-.057,5.749-.475.494-.212,1.2.1,1.644-.247.236.434.577.928.319,1.471-.343-.1-.657.176-.9.079-2.434.673-5.25.67-7.724.979a11.863,11.863,0,0,0-3.7.405c-.28-.053-.6.48-.74.082.215-.181-.03-.381-.16-.519a19.913,19.913,0,0,0-2.867-.972,3.457,3.457,0,0,0-.9-.179c-.422.516-.656-.083-1.151.25a2.726,2.726,0,0,0-1.492,2.148,3.968,3.968,0,0,1-.019,2.85c.563,1.784,3.339,1.5,3.176,3.825.283.727.071,1.658.477,2.334C176.337,70.035,176.5,69.51,176.791,69.555Zm23.786-8.892c1.8.438,3.883.21,5.578.9a7.443,7.443,0,0,1,2.378.45c-.054.561-.533.938-.667,1.463-.4-.142-.869-.093-1.229-.355-1.642-.02-3.167-.317-4.759-.467-.742.418-1.535-.089-2.381.069C199.772,62,199.885,61.046,200.576,60.663ZM189.24,61.875c1.151-.209,2.511.1,3.614-.232,1.444.226,2.747-.714,4.19-.488-.034.146.2.191.161.346-.168.552.032,1.331-.5,1.638-.658.048-1.412-.148-1.972.157a6.822,6.822,0,0,0-1.887-.1c-.409-.229-.9.165-1.313-.1a10.529,10.529,0,0,1-2.054.331c-.132-.037-.33.075-.41-.089C189.241,62.91,188.7,62.173,189.24,61.875Z" transform="translate(0 0)"/></g><script xmlns=""/></svg>